<svg width="200" height="200" viewBox="0 0 200 200" fill="none" xmlns="http://www.w3.org/2000/svg">
<rect width="200" height="200" fill="#1C398E"/>
<path d="M131.54 31.24C133.34 29.08 135.38 28 137.66 28C140.18 28 142.76 29.14 145.4 31.42C146.72 32.74 147.8 34.06 148.64 35.38C149.6 36.7 150.08 38.02 150.08 39.34C150.08 41.5 149.3 43.36 147.74 44.92L123.62 73L76.64 128.26V164.44C76.64 170.2 73.04 173.08 65.84 173.08C58.76 173.08 55.22 170.2 55.22 164.44V36.82C55.22 31.06 58.76 28.18 65.84 28.18C73.04 28.18 76.64 31.06 76.64 36.82V95.68L131.54 31.24ZM105.98 116.74C104.78 115.06 104.18 113.02 104.18 110.62C104.18 107.02 105.68 104.14 108.68 101.98H108.5C110.9 100.3 113.3 99.46 115.7 99.46C117.98 99.46 119.9 100.78 121.46 103.42L156.2 154.18L156.02 154C157.1 155.68 157.64 157.48 157.64 159.4C157.64 162.52 156.08 165.28 152.96 167.68H153.14C151.82 168.52 150.56 169.18 149.36 169.66C148.16 170.14 147.08 170.38 146.12 170.38C145.16 170.38 144.14 170.02 143.06 169.3C142.1 168.58 141.14 167.68 140.18 166.6L105.98 116.74Z" fill="white"/>
</svg>
